<?xml version="1.0" standalone="no"?>
<!DOCTYPE svg PUBLIC "-//W3C//DTD SVG 20010904//EN"
 "http://www.w3.org/TR/2001/REC-SVG-20010904/DTD/svg10.dtd">
<svg version="1.0" xmlns="http://www.w3.org/2000/svg"
 width="480.000000pt" height="480.000000pt" viewBox="0 0 480.000000 480.000000"
 preserveAspectRatio="xMidYMid meet">
<metadata>
Created by potrace 1.14, written by Peter Selinger 2001-2017
</metadata>
<g transform="translate(0.000000,480.000000) scale(0.100000,-0.100000)"
fill="#000000" stroke="none">
<path d="M3851 4217 c-56 -117 -106 -219 -111 -227 -6 -8 -15 -27 -21 -42 -6
-16 -13 -28 -15 -28 -2 0 -44 32 -95 70 -286 219 -620 354 -984 397 -82 10
-352 10 -450 0 -110 -11 -289 -51 -411 -92 -543 -181 -985 -592 -1206 -1120
-44 -103 -100 -275 -112 -341 -2 -16 -10 -56 -16 -89 -26 -144 -34 -422 -17
-565 17 -144 60 -344 86 -405 5 -11 17 -42 26 -70 10 -27 31 -78 47 -113 15
-34 28 -64 28 -66 0 -2 21 -41 47 -87 321 -575 883 -952 1533 -1026 81 -10
365 -10 445 0 512 59 970 307 1311 707 73 85 243 340 228 340 -3 0 3 12 13 28
11 15 32 56 47 92 15 36 34 79 41 95 19 44 67 199 81 260 13 58 36 193 42 245
14 131 6 547 -13 675 -3 17 -7 47 -10 68 -49 354 -123 640 -305 1184 l-107
321 -102 -211z"/>
</g>
</svg>
